<svg xmlns="http://www.w3.org/2000/svg" viewBox="0 0 600 600" width="600" height="600" role="img" aria-hidden="true"><rect width="600" height="600" fill="#efefea"/><rect x="0" y="0" width="46.154" height="46" fill="#141414" opacity="0.07"/><rect x="92.308" y="0" width="46.154" height="46" fill="#141414" opacity="0.07"/><rect x="184.615" y="0" width="46.154" height="46" fill="#141414" opacity="0.07"/><rect x="276.923" y="0" width="46.154" height="46" fill="#141414" opacity="0.07"/><rect x="369.231" y="0" width="46.154" height="46" fill="#141414" opacity="0.07"/><rect x="461.538" y="0" width="46.154" height="46" fill="#141414" opacity="0.07"/><rect x="553.846" y="0" width="46.154" height="46" fill="#141414" opacity="0.07"/>
     <rect x="96" y="150" width="408" height="336" fill="#fafaf8" stroke="#141414" stroke-width="7"/>
     <line x1="96" y1="222" x2="504" y2="222" stroke="#141414" stroke-width="7"/>
     <rect x="130" y="258" width="64" height="52" fill="#e4e4dd" stroke="#141414" stroke-width="0"/><rect x="230" y="258" width="64" height="52" fill="#e4e4dd" stroke="#141414" stroke-width="0"/><rect x="330" y="258" width="64" height="52" fill="#e4e4dd" stroke="#141414" stroke-width="0"/><rect x="430" y="258" width="64" height="52" fill="#e4e4dd" stroke="#141414" stroke-width="0"/><rect x="130" y="336" width="64" height="52" fill="#e4e4dd" stroke="#141414" stroke-width="0"/><rect x="230" y="336" width="64" height="52" fill="#e4e4dd" stroke="#141414" stroke-width="0"/><rect x="330" y="336" width="64" height="52" fill="#f0a11a" stroke="#141414" stroke-width="7"/><rect x="430" y="336" width="64" height="52" fill="#e4e4dd" stroke="#141414" stroke-width="0"/><rect x="130" y="414" width="64" height="52" fill="#e4e4dd" stroke="#141414" stroke-width="0"/><rect x="230" y="414" width="64" height="52" fill="#e4e4dd" stroke="#141414" stroke-width="0"/><rect x="330" y="414" width="64" height="52" fill="#e4e4dd" stroke="#141414" stroke-width="0"/><rect x="430" y="414" width="64" height="52" fill="#e4e4dd" stroke="#141414" stroke-width="0"/></svg>
